HIERARCHY
ROOT Hips
{
  OFFSET 0 89.5177 0.535
  CHANNELS 6 Xposition Yposition Zposition Zrotation Xrotation Yrotation
  JOINT Spine
  {
    OFFSET 12.0259 -0.162855 1.69034e-005
    CHANNELS 3 Zrotation Xrotation Yrotation
    JOINT Spine1
    {
      OFFSET 15.3169 -0.0121922 0
      CHANNELS 3 Zrotation Xrotation Yrotation
      JOINT Spine2
      {
        OFFSET 15.3176 -0.0121908 0
        CHANNELS 3 Zrotation Xrotation Yrotation
        JOINT Neck
        {
          OFFSET 19.9142 1.56338 0
          CHANNELS 3 Zrotation Xrotation Yrotation
          JOINT Head
          {
            OFFSET 6.92651 0 0
            CHANNELS 3 Zrotation Xrotation Yrotation
            End Site
            {
              OFFSET 20.7666 0 0
            }
          }
          JOINT LeftShoulder
          {
            OFFSET -6.20654 0.708824 7.28219
            CHANNELS 3 Zrotation Xrotation Yrotation
            JOINT LeftArm
            {
              OFFSET 14.108 0 -1.52588e-005
              CHANNELS 3 Zrotation Xrotation Yrotation
              JOINT LeftForeArm
              {
                OFFSET 28.5802 0 0
                CHANNELS 3 Zrotation Xrotation Yrotation
                JOINT LeftHand
                {
                  OFFSET 27.092 0 0
                  CHANNELS 3 Zrotation Xrotation Yrotation
                  End Site
                  {
                    OFFSET 9.55928 -0.186424 0.145352
                  }
                }
              }
            }
          }
          JOINT RightShoulder
          {
            OFFSET -6.20654 0.708866 -7.28218
            CHANNELS 3 Zrotation Xrotation Yrotation
            JOINT RightArm
            {
              OFFSET 14.108 0 1.52588e-005
              CHANNELS 3 Zrotation Xrotation Yrotation
              JOINT RightForeArm
              {
                OFFSET 28.5802 0 0
                CHANNELS 3 Zrotation Xrotation Yrotation
                JOINT RightHand
                {
                  OFFSET 27.092 0 0
                  CHANNELS 3 Zrotation Xrotation Yrotation
                  End Site
                  {
                    OFFSET 9.55929 -0.186417 -0.145354
                  }
                }
              }
            }
          }
        }
      }
    }
  }
  JOINT LeftUpLeg
  {
    OFFSET 0.005 -0.535 8.837
    CHANNELS 3 Zrotation Xrotation Yrotation
    JOINT LeftLeg
    {
      OFFSET 39.9035 0 0
      CHANNELS 3 Zrotation Xrotation Yrotation
      JOINT LeftFoot
      {
        OFFSET 39.6689 0 0
        CHANNELS 3 Zrotation Xrotation Yrotation
        JOINT LeftToe
        {
          OFFSET 10.1624 13.6296 0
          CHANNELS 3 Zrotation Xrotation Yrotation
          End Site
          {
            OFFSET 8.38147 0 0
          }
        }
      }
    }
  }
  JOINT RightUpLeg
  {
    OFFSET 0.005 -0.535 -8.837
    CHANNELS 3 Zrotation Xrotation Yrotation
    JOINT RightLeg
    {
      OFFSET 39.9035 0 0
      CHANNELS 3 Zrotation Xrotation Yrotation
      JOINT RightFoot
      {
        OFFSET 39.6689 0 0
        CHANNELS 3 Zrotation Xrotation Yrotation
        JOINT RightToe
        {
          OFFSET 10.1624 13.6296 0
          CHANNELS 3 Zrotation Xrotation Yrotation
          End Site
          {
            OFFSET 8.38147 0 0
          }
        }
      }
    }
  }
}
MOTION
Frames:	14
Frame Time:	0.0333333
288.489 89.2212 15.8751 179.352 -81.0307 88.4793 -1.08408 0.0767569 -0.897153 -2.16682 0.170928 -1.79251 -2.16683 0.170929 -1.79252 -8.30788e-012 -9.0191e-006 -5.27751e-005 11.0912 5.41709 -3.99872 177.883 -13.5244 -98.984 -9.70091 -56.2824 4.99175 -4.03393e-006 6.36111e-015 4.96962e-017 -39.5457 -21.1859 -23.3349 178.338 7.98863 101.791 80.7535 66.816 -87.221 -2.86747 1.59028e-015 1.98785e-016 -34.9683 9.8013 15.2135 -11.4884 3.53158 -178.765 -18.0674 0 1.98785e-016 17.9027 4.15649 -8.36032 90 -5.3734e-016 -0 -11.6364 -4.54873 -179.917 -16.857 1.59028e-015 5.96354e-016 13.4129 -2.14621 4.28717 90 7.79609e-016 -3.97569e-016 
288.505 89.2213 15.8704 179.071 -81.0162 88.2133 -1.08 0.0710652 -0.906263 -2.15874 0.159654 -1.81084 -2.15873 0.159655 -1.81085 -8.30748e-012 -9.0191e-006 -5.27751e-005 11.0427 5.50481 -3.94492 177.897 -13.5329 -98.9202 -9.79937 -56.0492 4.99548 -4.03393e-006 9.54166e-015 -0 -39.5253 -21.2868 -23.3604 178.358 7.94052 101.725 80.3788 66.815 -86.7634 -2.79374 7.95139e-016 -5.96354e-016 -35.0779 9.81722 15.2865 -11.4949 3.49548 -178.773 -18.0544 -7.95139e-016 -5.96354e-016 17.8835 4.15225 -8.35155 90 1.69588e-015 -0 -11.6393 -4.53918 -179.914 -16.8537 0 5.96354e-016 13.3976 -2.11262 4.21968 90 -6.83322e-016 -7.95139e-016 
288.524 89.2217 15.8621 178.929 -81.0117 88.089 -1.07998 0.0714076 -0.917749 -2.15576 0.151142 -1.8339 -2.15576 0.151142 -1.83391 -8.30788e-012 -9.0191e-006 -5.27751e-005 11.0843 5.49891 -3.9377 177.898 -13.5389 -98.9085 -9.7113 -56.0819 5.15314 -4.03392e-006 6.36111e-015 4.96962e-017 -39.5095 -21.2857 -23.2926 178.367 7.94229 101.658 80.0601 66.7804 -86.4579 -2.72002 -7.95139e-016 -0 -35.0979 9.97396 15.4307 -11.4806 3.44894 -178.794 -18.0144 7.95139e-016 -0 17.8393 4.1208 -8.28715 90 -1.56854e-015 -0 -11.6329 -4.54608 -179.919 -16.8477 0 1.98785e-016 13.3999 -2.10058 4.19525 90 -1.36975e-015 -0 
288.541 89.222 15.8559 179.079 -80.994 88.2496 -1.07996 0.0722464 -0.924392 -2.16536 0.147584 -1.84721 -2.16536 0.147584 -1.84722 -8.30708e-012 -9.0191e-006 -5.27751e-005 11.1771 5.42875 -3.94911 177.901 -13.5694 -98.8765 -9.72538 -55.938 5.19477 -4.03392e-006 6.36111e-015 -2.48481e-016 -39.4624 -21.4169 -23.3538 178.374 7.94589 101.605 79.7836 66.72 -86.2473 -2.69228 7.95139e-016 -0 -35.0715 10.051 15.5101 -11.4969 3.47104 -178.787 -18.0239 7.95139e-016 1.98785e-016 17.8359 4.13047 -8.30691 90 -1.6027e-015 -0 -11.6453 -4.52565 -179.915 -16.8395 -7.95139e-016 -0 13.4013 -2.10234 4.19891 90 -5.87036e-016 -7.95139e-016 
288.568 89.2225 15.8374 179.506 -81.0001 88.6551 -1.07997 0.0732987 -0.923288 -2.15528 0.155412 -1.84276 -2.15528 0.155412 -1.84276 -8.30708e-012 -9.0191e-006 -5.27751e-005 11.2316 5.42677 -3.96898 177.914 -13.5659 -98.8269 -9.7118 -55.7158 5.13811 -4.03391e-006 6.36111e-015 -9.93923e-017 -39.5666 -21.4989 -23.5134 178.375 7.96699 101.568 79.587 66.6916 -86.1531 -2.63362 7.95139e-016 -0 -35.071 10.1426 15.5814 -11.4719 3.53786 -178.742 -18.021 0 -1.98785e-016 17.8501 4.12996 -8.30584 90 -1.6555e-015 -0 -11.6256 -4.52233 -179.878 -16.8276 -7.95139e-016 -3.97569e-016 13.4386 -2.1403 4.27505 90 -3.26131e-016 -0 
288.587 89.2232 15.8165 179.927 -81.0098 89.0715 -1.08 0.0742809 -0.920628 -2.14761 0.166282 -1.8412 -2.14761 0.166283 -1.84121 -8.30907e-012 -9.0191e-006 -5.27751e-005 11.2212 5.38575 -4.04338 177.927 -13.545 -98.7851 -9.671 -55.6107 5.0606 -4.03391e-006 -1.90833e-014 -9.93923e-017 -39.5928 -21.5814 -23.6067 178.381 7.95364 101.543 79.413 66.6528 -85.9951 -2.63845 -1.59028e-015 -0 -35.012 10.1097 15.5046 -11.438 3.61138 -178.714 -18.0132 0 -1.98785e-016 17.8713 4.14089 -8.32827 90 -4.31735e-016 -0 -11.5989 -4.47853 -179.857 -16.8104 7.95139e-016 -0 13.4465 -2.15657 4.30781 90 -1.43498e-015 -0 
288.605 89.2236 15.8039 -179.823 -81.0036 89.303 -1.08005 0.0753292 -0.91739 -2.14779 0.168296 -1.83247 -2.14779 0.168296 -1.83248 -8.30708e-012 -9.0191e-006 -5.27751e-005 11.1911 5.42381 -4.08364 177.927 -13.5686 -98.7723 -9.68151 -55.5289 4.97162 -4.0339e-006 -9.54166e-015 4.96962e-017 -39.5675 -21.6473 -23.6538 178.38 7.9565 101.546 79.469 66.621 -86.0589 -2.67885 2.38542e-015 1.98785e-016 -35.0457 10.0977 15.5544 -11.4526 3.63808 -178.675 -18.0487 0 -0 17.8583 4.14834 -8.34351 90 8.75895e-016 -9.93923e-017 -11.5911 -4.47013 -179.825 -16.796 7.95139e-016 -0 13.4615 -2.16823 4.33136 90 -9.13167e-016 3.97569e-016 
288.609 89.224 15.7895 -179.623 -80.9969 89.508 -1.0801 0.0785244 -0.91455 -2.14814 0.176623 -1.82727 -2.14814 0.176623 -1.82728 -8.30589e-012 -9.0191e-006 -5.27751e-005 11.195 5.46758 -4.13555 177.92 -13.5933 -98.7837 -9.62811 -55.5586 4.9709 -4.0339e-006 -9.54166e-015 -1.98785e-016 -39.6391 -21.6809 -23.7547 178.372 7.98191 101.57 79.6786 66.6361 -86.2498 -2.65708 7.95139e-016 1.98785e-016 -35.071 10.075 15.4816 -11.4306 3.63768 -178.683 -18.018 0 1.98785e-016 17.8713 4.11619 -8.27804 90 -7.79609e-016 1.98785e-016 -11.5825 -4.42498 -179.821 -16.7782 -7.95139e-016 -3.97569e-016 13.4506 -2.16223 4.31921 90 1.02498e-016 -3.97569e-016 
288.612 89.2244 15.7733 -179.652 -80.9839 89.4778 -1.0802 0.0806569 -0.912631 -2.14903 0.178855 -1.82161 -2.14903 0.178855 -1.82162 -8.30828e-012 -9.0191e-006 -5.27751e-005 11.1968 5.50938 -4.17661 177.907 -13.6151 -98.8241 -9.62917 -55.5702 4.9372 -4.03389e-006 -3.18055e-015 -0 -39.6153 -21.592 -23.6501 178.363 8.00027 101.606 79.7963 66.6485 -86.3238 -2.64297 1.59028e-015 -0 -35.0979 10.0683 15.5059 -11.4296 3.62185 -178.686 -18.0021 -7.95139e-016 -5.96354e-016 17.8327 4.11192 -8.26919 90 -4.41054e-016 -1.98785e-016 -11.5769 -4.41607 -179.817 -16.7647 1.59028e-015 3.97569e-016 13.4457 -2.15323 4.30111 90 1.68967e-015 -3.97569e-016 
288.614 89.2249 15.7541 -179.877 -80.9761 89.2589 -1.08047 0.0754828 -0.910512 -2.15058 0.168496 -1.81927 -2.15058 0.168496 -1.81927 -8.30867e-012 -9.0191e-006 -5.27751e-005 11.198 5.55347 -4.16805 177.892 -13.6252 -98.8823 -9.6018 -55.5825 4.92402 -4.03389e-006 0 -1.98785e-016 -39.622 -21.5721 -23.6657 178.355 8.00376 101.653 79.811 66.6358 -86.2894 -2.66366 -7.95139e-016 3.97569e-016 -35.1537 10.0751 15.5543 -11.4138 3.61194 -178.688 -17.9892 7.95139e-016 1.98785e-016 17.8768 4.12801 -8.30213 90 -3.32343e-016 1.98785e-016 -11.575 -4.49794 -179.833 -16.7781 0 1.98785e-016 13.4866 -2.18392 4.3628 90 -1.20824e-015 7.95139e-016 
288.608 89.2253 15.7364 179.849 -80.9682 88.9895 -1.0808 0.0692086 -0.906405 -2.15243 0.155894 -1.81117 -2.15243 0.155895 -1.81118 -8.30828e-012 -9.0191e-006 -5.27751e-005 11.1872 5.56851 -4.18847 177.878 -13.6173 -98.9425 -9.51615 -55.7282 4.95866 -4.03388e-006 -9.54166e-015 9.93923e-017 -39.7089 -21.5215 -23.6885 178.347 8.01388 101.696 79.9958 66.6588 -86.4384 -2.67175 -7.95139e-016 -3.97569e-016 -35.0813 10.0538 15.5009 -11.3946 3.59621 -178.698 -17.9429 -7.95139e-016 -5.96354e-016 17.8462 4.14845 -8.34371 90 1.35733e-015 -0 -11.5658 -4.5103 -179.841 -16.7747 -7.95139e-016 -0 13.472 -2.16413 4.3231 90 -7.98245e-016 3.97569e-016 
288.594 89.2257 15.7204 179.538 -80.9633 88.6824 -1.0812 0.0624325 -0.900989 -2.15758 0.142282 -1.80046 -2.15758 0.142282 -1.80047 -8.30708e-012 -9.0191e-006 -5.27751e-005 11.2034 5.56731 -4.18635 177.869 -13.5884 -98.9992 -9.48378 -55.7044 4.94373 -4.03388e-006 0 9.93923e-017 -39.5891 -21.5363 -23.5812 178.34 8.01891 101.737 80.01 66.6445 -86.4455 -2.74226 0 1.98785e-016 -35.0849 10.0418 15.5023 -11.3829 3.53437 -178.719 -17.9339 0 -1.98785e-016 17.856 4.1372 -8.32078 90 -8.38623e-017 -0 -11.5435 -4.47024 -179.844 -16.7527 -1.59028e-015 -3.97569e-016 13.4255 -2.11048 4.21531 90 5.24916e-016 -3.97569e-016 
288.58 89.2262 15.7062 179.274 -80.9622 88.4262 -1.08165 0.0568375 -0.896032 -2.16227 0.131036 -1.79065 -2.16227 0.131037 -1.79066 -8.30708e-012 -9.0191e-006 -5.27751e-005 11.2546 5.56288 -4.15346 177.866 -13.5601 -99.0319 -9.48015 -55.5559 4.91897 -4.03387e-006 -6.36111e-015 -1.98785e-016 -39.7149 -21.6726 -23.8081 178.333 8.03013 101.766 80.1079 66.6573 -86.5514 -2.74972 0 -0 -35.1176 10.0335 15.4944 -11.3592 3.48286 -178.751 -17.9037 -7.95139e-016 -3.97569e-016 17.827 4.11222 -8.26966 90 1.9133e-015 -2.98177e-016 -11.5383 -4.50321 -179.866 -16.772 7.95139e-016 -1.98785e-016 13.4277 -2.1031 4.20028 90 -2.48481e-017 -3.97569e-016 
288.561 89.2263 15.6902 179.205 -80.9622 88.3641 -1.08658 0.0565553 -0.88889 -2.17224 0.126856 -1.7764 -2.17224 0.126856 -1.77641 -8.30708e-012 -9.0191e-006 -5.27751e-005 11.3268 5.53832 -4.12414 177.869 -13.5312 -99.0376 -9.46177 -55.5891 4.91227 -4.03387e-006 -6.36111e-015 4.96962e-016 -39.698 -21.719 -23.8345 178.33 8.02838 101.789 80.2179 66.6672 -86.682 -2.72894 7.95139e-016 -1.98785e-016 -35.0599 9.98411 15.4279 -11.3389 3.46544 -178.775 -17.8771 -7.95139e-016 1.98785e-016 17.823 4.10451 -8.25399 90 -2.73329e-016 -2.98177e-016 -11.5289 -4.49715 -179.885 -16.7666 7.95139e-016 5.96354e-016 13.422 -2.09711 4.18825 90 4.7522e-016 -3.97569e-016 
